<svg viewBox="0 0 576.22 195.42" xmlns="http://www.w3.org/2000/svg"><path d="m544.08 126.3-2.69 3.17c-.43.52-.92 1.1-1.46 1.73l-1.84 1.8a48.74 48.74 0 0 1 -4.67 4.3 116.43 116.43 0 0 1 -13 9.4l-4 2.45c-1.36.81-2.77 1.54-4.22 2.34-2.89 1.65-6 3-9.17 4.46s-6.57 2.75-10.05 4.19-7.1 2.43-10.82 3.68a211.78 211.78 0 0 1 -23.5 5.87l-6.19 1.16-6.28 1c-2.11.31-4.23.69-6.36.91l-6.43.61c-4.31.45-8.65.59-13 .89s-8.71.29-13.16.38c-4.35-.15-8.68-.18-13.05-.43s-8.74-.43-13-.92l-6.43-.64c-2.13-.23-4.25-.63-6.36-.93l-6.28-1-6.18-1.18a213.59 213.59 0 0 1 -23.51-5.95c-3.71-1.28-7.33-2.36-10.81-3.74s-6.84-2.67-10-4.24-6.29-2.83-9.17-4.52c-1.45-.82-2.86-1.56-4.22-2.37l-3.95-2.49c-2.56-1.52-4.9-3.31-7.08-4.86s-4.13-3.27-5.9-4.7a44.89 44.89 0 0 1 -4.63-4.37l-1.84-1.87c-.53-.66-1-1.26-1.46-1.79l-2.67-3.28.25-.82 2.75 2.84 1.5 1.55 1.88 1.58a51.26 51.26 0 0 0 4.69 3.74c1.79 1.22 3.74 2.78 5.94 4s4.55 2.81 7.12 4l4 2c1.36.66 2.78 1.25 4.23 1.9s2.93 1.34 4.46 1.92l4.69 1.79c3.2 1.3 6.56 2.23 10 3.41s7.07 2 10.77 3c7.42 1.79 15.25 3.51 23.37 4.74l6.15 1 6.24.74c4.18.56 8.43.88 12.7 1.22s8.59.48 12.91.73 8.69.15 13 .24l13-.19c4.32-.25 8.64-.32 12.91-.7s8.52-.64 12.71-1.19l6.24-.72 6.14-.93c8.13-1.2 16-2.9 23.38-4.66 3.7-1 7.3-1.92 10.78-3s6.82-2.08 10-3.36l4.7-1.75c1.53-.59 3-1.29 4.46-1.9s2.87-1.2 4.23-1.86l4-2a101.84 101.84 0 0 0 13.1-7.78 54.93 54.93 0 0 0 4.7-3.64l1.88-1.54 1.52-1.51 2.79-2.76z" fill="#e9c47c"/><path d="m277 104.69-.38.13a5.28 5.28 0 0 1 -.12 1.59 7.24 7.24 0 0 1 -1.78 3.24 12.56 12.56 0 0 1 -1.8 1.65 20.93 20.93 0 0 1 -2.38 1.52 65.61 65.61 0 0 0 -6 4 16 16 0 0 0 -1.44 1.3 15.34 15.34 0 0 0 -1.32 1.53 14.92 14.92 0 0 0 -1.89 3.25 15.49 15.49 0 0 0 -1.3 6.36 14.73 14.73 0 0 0 .7 4.44 12.18 12.18 0 0 0 .6 1.57l.37-.13a12.2 12.2 0 0 1 -.31-1.59 13.39 13.39 0 0 1 0-4.2 15.91 15.91 0 0 1 2-5.41 12.18 12.18 0 0 1 1.92-2.52 12.43 12.43 0 0 1 1.14-1.05 13.76 13.76 0 0 1 1.36-.95c1.88-1.11 4.14-1.84 6.25-3a14.09 14.09 0 0 0 2.88-2.26 10 10 0 0 0 1.89-2.82 7 7 0 0 0 .46-5 3.53 3.53 0 0 0 -.85-1.65z" fill="#e9c47c"/><path d="m552.7 122.88a15.29 15.29 0 0 0 -1.88-3.25 16.77 16.77 0 0 0 -1.32-1.53 16 16 0 0 0 -1.44-1.3 65.66 65.66 0 0 0 -6-4 20.93 20.93 0 0 1 -2.38-1.52 12.46 12.46 0 0 1 -1.79-1.65 7.27 7.27 0 0 1 -1.79-3.24 5.28 5.28 0 0 1 -.12-1.59l-.37-.13a3.48 3.48 0 0 0 -.9 1.61 7.1 7.1 0 0 0 .46 5 9.8 9.8 0 0 0 1.9 2.82 14.3 14.3 0 0 0 2.87 2.26c2.12 1.18 4.37 1.91 6.25 3a13.8 13.8 0 0 1 1.37.95c.39.35.76.64 1.14 1.05a12.92 12.92 0 0 1 1.92 2.52 15.88 15.88 0 0 1 2 5.41 13.75 13.75 0 0 1 0 4.2 13.07 13.07 0 0 1 -.32 1.59l.37.13a12.18 12.18 0 0 0 .6-1.57 14.12 14.12 0 0 0 .7-4.44 15.33 15.33 0 0 0 -1.27-6.32z" fill="#e9c47c"/><g fill="#8a877f"><path d="m20.19 100.13v-79.34h5v35.51h42.54v-35.51h5v79.34h-5v-39.39h-42.55v39.39z"/><path d="m138.44 74q-.67 11.91-8.26 19.5a25.44 25.44 0 0 1 -18.73 7.59 26.45 26.45 0 0 1 -10.33-2 26.07 26.07 0 0 1 -8.73-6 27.58 27.58 0 0 1 -6-9.06 28.2 28.2 0 0 1 6-30.45 26.49 26.49 0 0 1 8.81-6 27.26 27.26 0 0 1 10.58-2.06 25.34 25.34 0 0 1 13 3.39 27.85 27.85 0 0 1 9.78 10l-37.3 24.99-2.16-3.6 33.14-22.17a20.62 20.62 0 0 0 -7.24-6.31 20.1 20.1 0 0 0 -9.31-2.16 21.15 21.15 0 0 0 -15.95 6.84 23.4 23.4 0 0 0 -6.51 16.76 23.31 23.31 0 0 0 6.46 16.68 20.87 20.87 0 0 0 15.76 6.81 20.51 20.51 0 0 0 15.29-6.28q6.15-6.3 6.82-16.43z"/><path d="m194.73 100.13v-24q0-12.09-6-19.2t-16.1-7.12a21 21 0 0 0 -15.84 6.7 23.42 23.42 0 0 0 -6.38 16.79q0 10.2 6.29 16.85a21 21 0 0 0 15.93 6.64 22.24 22.24 0 0 0 9.92-2.24 28.06 28.06 0 0 0 8.59-6.73v6.09a27.39 27.39 0 0 1 -8.62 5.46 27 27 0 0 1 -9.89 1.8 27.72 27.72 0 0 1 -10.8-2.08 24.59 24.59 0 0 1 -8.7-6.06 27.68 27.68 0 0 1 -5.65-9 29 29 0 0 1 -1.94-10.61q0-12.08 7.62-20a25.68 25.68 0 0 1 19.25-7.87 26.45 26.45 0 0 1 13.29 3.45 27.68 27.68 0 0 1 10 9.86 23.59 23.59 0 0 1 2.83 7.46 50 50 0 0 1 .89 10.11v23.71z"/><path d="m213.35 100.13v-79.34h4.65v79.34z"/><path d="m232.08 31.37h4.65v15.18h19v4.45h-19v30q0 7.76 3.77 11.31t12 3.54h3.21v4.32h-2.41q-10.63 0-15.93-4.68t-5.29-14z"/><path d="m266.1 100.13v-79.34h4.54v35.29a22.41 22.41 0 0 1 7.85-7.87 20.33 20.33 0 0 1 10.44-2.77q9.52 0 15.15 6.4t5.63 17.43v30.86h-4.54v-31.75q0-8.19-4.58-13.35a14.86 14.86 0 0 0 -11.66-5.15 16.59 16.59 0 0 0 -13.13 5.93q-5.16 5.92-5.16 15.18v29.14z"/></g><path d="m332.7 95.7h.3c2.22.15 3.86.22 4.93.22q18.68 0 29-9.31t10.27-26.09a39.46 39.46 0 0 0 -2.3-13.72 32.28 32.28 0 0 0 -6.79-11 30.81 30.81 0 0 0 -12.3-8.17q-7-2.52-18.12-2.52h-8.64v75h-5v-79.32h13.08a78.33 78.33 0 0 1 15.87 1.38 34.3 34.3 0 0 1 11.19 4.32 37.15 37.15 0 0 1 13.63 14.08 41.35 41.35 0 0 1 4.55 19.83q0 18.9-11.78 29.37t-33.16 10.48h-2.94c-.66 0-1.27 0-1.83-.1z" fill="#a3cbcc"/><path d="m444.13 74q-.66 11.91-8.25 19.5a25.46 25.46 0 0 1 -18.73 7.59 26.41 26.41 0 0 1 -10.33-2 26.07 26.07 0 0 1 -8.73-6 27.42 27.42 0 0 1 -6-9.06 28.2 28.2 0 0 1 6-30.45 26.49 26.49 0 0 1 8.81-6 27.22 27.22 0 0 1 10.58-2.06 25.34 25.34 0 0 1 13 3.39 27.85 27.85 0 0 1 9.78 10l-37.26 24.99-2.16-3.6 33.14-22.17a20.62 20.62 0 0 0 -7.26-6.31 20.1 20.1 0 0 0 -9.31-2.16 21.15 21.15 0 0 0 -15.93 6.84 23.4 23.4 0 0 0 -6.51 16.76 23.31 23.31 0 0 0 6.46 16.68 20.87 20.87 0 0 0 15.76 6.81 20.51 20.51 0 0 0 15.29-6.28q6.15-6.3 6.82-16.43z" fill="#a3cbcc"/><path d="m458.71 100.13h-4.55v-30.31q0-11.13 5.93-17.7t15.85-6.57q9.92 0 15.85 6.57t5.93 17.7v30.31h-4.55v-31.75q0-8.31-4.79-13.46a17.6 17.6 0 0 0 -24.88 0q-4.78 5.16-4.79 13.46z" fill="#a3cbcc"/><path d="m511 31.37h4.65v15.18h19v4.45h-19v30q0 7.76 3.77 11.31t12 3.54h3.21v4.32h-2.38q-10.63 0-15.93-4.68t-5.29-14z" fill="#a3cbcc"/></svg>